<svg xmlns="http://www.w3.org/2000/svg" xmlns:xlink="http://www.w3.org/1999/xlink" version="1.1" x="0px" y="0px"
    viewBox="0 0 90 90" enable-background="new 0 0 90 90" xml:space="preserve">
    <defs>
        <linearGradient id="okchat" x2="1" y2="1">
            <stop offset="0%" stop-color="#12c2e9" />
            <stop offset="50%" stop-color="#c471ed" />
            <stop offset="100%" stop-color="#f64f59" />
        </linearGradient>
    </defs>
    <path
        d="M45,4.4C22.6,4.4,4.4,22.6,4.4,45S22.6,85.6,45,85.6c22.4,0,40.6-18.2,40.6-40.6S67.4,4.4,45,4.4z M20,34.4h-2.9  c-2,0-3.6-1.6-3.6-3.6c0-2,1.6-3.6,3.6-3.6H20c2,0,3.6,1.6,3.6,3.6C23.7,32.8,22.1,34.4,20,34.4z M72.5,56.7H61.1L55,62.9v-6.2h-8.7  h-4.1h-8.9c-1.6,0-2.9-1.3-2.9-2.9s1.3-2.9,2.9-2.9H40c0.9-0.3,1.6-1.2,1.6-2.2c0-1.3-1-2.3-2.3-2.3h-1.1h-1.6c-2,0-3.6-1.6-3.6-3.6  s1.6-3.6,3.6-3.6h1.6v0h3.1c1.3,0,2.3-1,2.3-2.3c0-1.3-1-2.3-2.3-2.3h-3.1h-7.1c-2,0-3.6-1.6-3.6-3.6c0-2,1.6-3.6,3.6-3.6h11.1h9.2  h21.2c2.2,0,4,1.8,4,4v21.6C76.5,54.9,74.7,56.7,72.5,56.7z"
        fill="url('#okchat')" />
</svg>